<?xml version="1.0" encoding="utf-8"?>
<!-- Generator: Adobe Illustrator 23.1.0, SVG Export Plug-In . SVG Version: 6.00 Build 0)  -->
<svg version="1.1" id="Слой_1" xmlns="http://www.w3.org/2000/svg" xmlns:xlink="http://www.w3.org/1999/xlink" x="0px" y="0px"
	 viewBox="0 0 698.86 699" style="enable-background:new 0 0 698.86 699;" xml:space="preserve">
<style type="text/css">
	.st0{fill:#F26D6D;}
	.st1{fill:none;stroke:#C7C7C7;stroke-width:29;stroke-miterlimit:10;}
	.st2{fill:#3AAFA9;}
	.st3{fill:#B39DDB;}
	.st4{fill:#CFBC81;}
	.st5{fill:#919191;}
</style>
<g>
	<g>
		<circle class="st0" cx="239.86" cy="463.09" r="17.5"/>
		<circle class="st1" cx="239.39" cy="462.54" r="61.86"/>
		<circle class="st1" cx="237.14" cy="466.32" r="139.69"/>
		<circle class="st1" cx="236" cy="463" r="221.5"/>
	</g>
	<g>
		<polygon class="st2" points="698.86,102.01 619.92,97.6 587.39,130.13 663.96,136.91 		"/>
		<polygon class="st3" points="613.83,185.71 534.88,181.3 502.36,213.83 578.93,220.6 		"/>
		<polygon class="st4" points="657.22,143.65 578.28,139.24 545.75,171.77 622.33,178.54 		"/>
		<polygon class="st5" points="623.31,86.09 613.83,76.61 283.14,407.29 258.07,382.22 238.79,461.03 314.82,443.04 290.59,416.1 		
			"/>
		<polygon class="st2" points="597.94,0 602.35,78.95 569.82,111.47 563.05,34.9 		"/>
		<polygon class="st3" points="514.25,85.03 518.65,163.98 486.13,196.51 479.35,119.93 		"/>
		<polygon class="st4" points="556.31,41.64 560.71,120.58 528.19,153.11 521.41,76.54 		"/>
	</g>
</g>
</svg>
