<?xml version="1.0" encoding="utf-8"?>
<!-- Generator: Adobe Illustrator 23.1.0, SVG Export Plug-In . SVG Version: 6.00 Build 0)  -->
<svg version="1.1" id="Слой_1" xmlns="http://www.w3.org/2000/svg" xmlns:xlink="http://www.w3.org/1999/xlink" x="0px" y="0px"
	 viewBox="0 0 614 152" style="enable-background:new 0 0 614 152;" xml:space="preserve">
<style type="text/css">
	.st0{fill:#3AAFA9;}
	.st1{fill:#B39DDB;}
	.st2{fill:#CFBC81;}
	.st3{fill:#919191;}
</style>
<g>
	<polygon class="st0" points="1.44,0.27 57.22,62.64 105.89,62.64 53.67,0.27 	"/>
	<polygon class="st1" points="127.7,1.27 183.47,63.64 232.15,63.64 179.92,1.27 	"/>
	<polygon class="st2" points="63.75,0.27 119.53,62.64 168.2,62.64 115.98,0.27 	"/>
	<polygon class="st3" points="46.06,68.71 46.06,82.91 540.94,82.91 540.94,120.43 614.33,75.88 543.98,32.45 541.95,70.74 	"/>
	<polygon class="st0" points="0.63,152.11 56.4,89.74 105.08,89.74 52.85,152.11 	"/>
	<polygon class="st1" points="126.88,151.11 182.66,88.74 231.33,88.74 179.11,151.11 	"/>
	<polygon class="st2" points="62.94,152.11 118.71,89.74 167.39,89.74 115.16,152.11 	"/>
</g>
</svg>
