<?xml version="1.0" encoding="utf-8"?>
<!-- Generator: Adobe Illustrator 23.1.0, SVG Export Plug-In . SVG Version: 6.00 Build 0)  -->
<svg version="1.1" id="Слой_1" xmlns="http://www.w3.org/2000/svg" xmlns:xlink="http://www.w3.org/1999/xlink" x="0px" y="0px"
	 viewBox="0 0 450 512" style="enable-background:new 0 0 450 512;" xml:space="preserve">
<style type="text/css">
	.st0{fill:#EFCB73;}
	.st1{fill:#F26D6D;}
	.st2{fill:none;}
	.st3{fill:#54C6BD;}
	.st4{fill:#3AAFA9;}
	.st5{fill:#F4976C;}
	.st6{fill:#CFBC81;}
	.st7{fill:#4EC46F;}
	.st8{fill:#479860;}
</style>
<path class="st0" d="M224.85,375.49h-15v60h15h15v-60H224.85z"/>
<path class="st1" d="M224.85,375.49h15v60h-15V375.49z"/>
<g>
	<path class="st2" d="M188.22,232.13c-15.33,1.71-30.66-3.03-46.16-14.92c-15.12,23.74-23.62,62.47-27.4,88.48
		c26.01-3.79,64.74-12.28,88.48-27.4C191.26,262.81,186.51,247.48,188.22,232.13L188.22,232.13z"/>
	<path class="st2" d="M142.05,173.77c15.48-11.87,30.81-16.62,46.17-14.91c-1.71-15.35,3.04-30.69,14.91-46.17
		c-23.74-15.12-62.47-23.61-88.48-27.4C118.44,111.3,126.93,150.03,142.05,173.77L142.05,173.77z"/>
	<path class="st2" d="M201.8,195.54c-12.74-8.96-24.39-9.7-38.45-0.07C178.02,205.46,189.72,204.1,201.8,195.54L201.8,195.54z"/>
</g>
<path class="st3" d="M367.09,69.4l-16.14-16.14c-3.66,0.3-83.2,7-126.09,37.98C181.96,60.26,102.42,53.55,98.76,53.26L82.62,69.4
	c0.3,3.66,7,83.2,37.98,126.09c-30.98,42.89-37.68,122.43-37.98,126.09l16.14,16.14c3.66-0.3,83.2-7,126.09-37.98
	c42.89,30.98,122.43,37.68,126.09,37.98l16.14-16.14c-0.3-3.66-7-83.2-37.98-126.09C360.09,152.6,366.79,73.06,367.09,69.4z
	 M335.05,85.29c-3.79,26.01-12.28,64.74-27.4,88.48c-15.48-11.87-30.81-16.62-46.17-14.91c1.71-15.35-3.05-30.69-14.92-46.17
	C270.31,97.57,309.04,89.08,335.05,85.29L335.05,85.29z M286.36,195.48c-14.67,10-26.36,8.64-38.46,0.06
	C260.62,186.59,272.27,185.82,286.36,195.48z M114.65,305.69c3.79-26.01,12.28-64.75,27.4-88.48c15.5,11.89,30.84,16.62,46.16,14.92
	c-1.71,15.35,3.04,30.68,14.91,46.16C179.4,293.41,140.66,301.91,114.65,305.69L114.65,305.69z M163.35,195.47
	c14.06-9.63,25.71-8.89,38.45,0.07C189.72,204.1,178.02,205.46,163.35,195.47L163.35,195.47z M188.22,158.86
	c-15.35-1.71-30.69,3.04-46.17,14.91c-15.12-23.74-23.61-62.47-27.4-88.48c26.01,3.79,64.74,12.28,88.48,27.4
	C191.26,128.17,186.51,143.51,188.22,158.86L188.22,158.86z M224.85,256.95c-9.98-14.68-8.6-26.37,0-38.47
	C233.45,230.58,234.83,242.27,224.85,256.95z M224.85,172.5c-8.6-12.1-9.98-23.79,0-38.47C234.83,148.71,233.45,160.4,224.85,172.5z
	 M335.05,305.69c-26.01-3.79-64.74-12.28-88.48-27.4c11.87-15.48,16.62-30.81,14.92-46.16c15.33,1.71,30.66-3.03,46.16-14.92
	C322.77,240.95,331.27,279.68,335.05,305.69L335.05,305.69z"/>
<path class="st4" d="M367.09,321.59c-0.3-3.66-7-83.2-37.98-126.09c30.98-42.89,37.68-122.43,37.98-126.09l-16.14-16.14
	c-3.66,0.3-83.2,7-126.09,37.98v42.79c9.98,14.68,8.6,26.37,0,38.47v45.97c8.6,12.1,9.98,23.79,0,38.47v42.79
	c42.89,30.98,122.43,37.68,126.09,37.98L367.09,321.59z M335.05,85.29c-3.79,26.01-12.28,64.74-27.4,88.48
	c-15.48-11.87-30.81-16.62-46.17-14.91c1.71-15.35-3.05-30.69-14.92-46.17C270.31,97.57,309.04,89.08,335.05,85.29L335.05,85.29z
	 M286.36,195.48c-14.67,10-26.36,8.64-38.46,0.06C260.62,186.59,272.27,185.82,286.36,195.48z M246.57,278.29
	c11.87-15.48,16.62-30.81,14.92-46.16c15.33,1.71,30.66-3.03,46.16-14.92c15.12,23.74,23.62,62.47,27.4,88.48
	C309.04,301.91,270.31,293.41,246.57,278.29L246.57,278.29z"/>
<path class="st5" d="M224.85,0.49c-107.7,0-195,87.31-195,195s87.3,195,195,195s195-87.3,195-195S332.55,0.49,224.85,0.49z
	 M224.85,360.49c-90.98,0-165-74.02-165-165s74.02-165,165-165s165,74.02,165,165S315.83,360.49,224.85,360.49z"/>
<path class="st1" d="M419.85,195.49c0-107.69-87.3-195-195-195v30c90.98,0,165,74.02,165,165s-74.02,165-165,165v30
	C332.55,390.49,419.85,303.19,419.85,195.49z"/>
<path class="st6" d="M404.85,210.49h-15v120l15,30l15-30v-120H404.85z"/>
<path class="st0" d="M419.85,210.49h-15v150l15-30V210.49z"/>
<path class="st7" d="M419.85,330.49h-15h-15c-12.4,12.04-30,40.24-30,87.42v5.16c0,30.91,12.54,56.96,34.39,78.82l10.61,10.61
	l10.61-10.61c21.86-21.86,34.39-47.91,34.39-78.82v-5.16C449.85,370.45,432.27,342.43,419.85,330.49z"/>
<path class="st8" d="M449.85,423.07v-5.16c0-47.46-17.58-75.48-30-87.42h-15v182l10.61-10.61
	C437.31,480.03,449.85,453.98,449.85,423.07z"/>
<circle class="st0" cx="404.85" cy="195.49" r="45"/>
<path class="st6" d="M449.85,195.49c0-24.81-20.19-45-45-45v90C429.67,240.49,449.85,220.31,449.85,195.49z"/>
<path class="st6" d="M44.85,210.49h-15v120l15,30l15-30v-120H44.85z"/>
<path class="st0" d="M59.85,210.49h-15v150l15-30V210.49z"/>
<path class="st7" d="M59.85,330.49h-15h-15c-12.4,12.04-30,40.24-30,87.42v5.16c0,30.91,12.54,56.96,34.4,78.82l10.6,10.61
	l10.6-10.61c21.86-21.86,34.4-47.91,34.4-78.82v-5.16C89.85,370.45,72.27,342.43,59.85,330.49z"/>
<path class="st8" d="M89.85,423.07v-5.16c0-47.46-17.58-75.48-30-87.42h-15v182l10.6-10.61C77.31,480.03,89.85,453.98,89.85,423.07z
	"/>
<circle class="st0" cx="44.85" cy="195.49" r="45"/>
<path class="st6" d="M89.85,195.49c0-24.81-20.19-45-45-45v90C69.67,240.49,89.85,220.31,89.85,195.49z"/>
<path class="st0" d="M224.85,420.49c-24.81,0-45,22.19-45,47v45h45h45v-45C269.85,442.68,249.67,420.49,224.85,420.49z"/>
<path class="st6" d="M269.85,467.49c0-24.81-20.19-47-45-47v92h45V467.49z"/>
</svg>
