<?xml version="1.0" encoding="utf-8"?>
<!-- Generator: Adobe Illustrator 23.1.0, SVG Export Plug-In . SVG Version: 6.00 Build 0)  -->
<svg version="1.1" id="Слой_1" xmlns="http://www.w3.org/2000/svg" xmlns:xlink="http://www.w3.org/1999/xlink" x="0px" y="0px"
	 viewBox="0 0 480 504" style="enable-background:new 0 0 480 504;" xml:space="preserve">
<style type="text/css">
	.st0{fill:#6ECEC4;}
	.st1{fill:#F4976C;}
	.st2{fill:#3AAFA9;}
	.st3{fill:#54C6BD;}
	.st4{fill:#5DE5E0;}
	.st5{fill:#308E87;}
	.st6{fill:#B39DDB;}
	.st7{opacity:0.5;}
	.st8{fill:#C76B28;}
	.st9{fill:#E93527;}
	.st10{fill:#F26D6D;}
	.st11{fill:#EFCB73;}
	.st12{fill:#4D6E9B;}
</style>
<path class="st0" d="M480.1,288.13l-32,32l-208-80l208-8L480.1,288.13z"/>
<path class="st1" d="M280.1,304.13l-1,200h-150l-1-96h-72c-13.25,0-24-10.75-24-24v-16l16-64l-48-8l0.72-0.88l47.28-55.12l-16-32
	l0.16-0.24l40.8-57.04L280.1,304.13z"/>
<path class="st2" d="M135.42,98.42L256.1,48.13l32-40l-48-8L118.37,64.11L135.42,98.42z"/>
<path class="st2" d="M240.1,288.13l184,96l56-16l-32-48l-162.41-64.96L240.1,288.13z"/>
<path class="st2" d="M285.18,203.04l170.91-66.91l24-56l-72-24l-248,104l32,80L285.18,203.04z"/>
<path class="st3" d="M464.1,8.13l-40,48l-264,104l-24.88-34.8l-15.12-21.2l136-56l88-32l56-16l41.76,5.2L464.1,8.13z"/>
<g>
	<path class="st4" d="M441.86,5.33l-31.28,12.24l-260,101.76l-15.36,6l-15.12-21.2l136-56l88-32l56-16L441.86,5.33z"/>
</g>
<path class="st4" d="M480.1,192.13l-32,40l-167.12,6.42l-8.88-30.42l144-56l39.36,24.64L480.1,192.13z"/>
<g>
	<path class="st3" d="M455.46,176.77l-170.8,50.24l-12.56-18.88l144-56L455.46,176.77z"/>
</g>
<path class="st4" d="M466.1,479.13h-56l-136-104l-24-88l200,144l13.68,41.12L466.1,479.13z"/>
<path class="st3" d="M466.1,479.13h-56l-136-104l-9.76-35.78l199.44,132.9L466.1,479.13z"/>
<path class="st5" d="M192.1,240.13l-2.08-1.52L54.26,136.77c-10.62-7.93-12.79-22.97-4.86-33.59c0.7-0.94,1.47-1.82,2.3-2.65
	l34.64-34.64c9.35-9.39,24.55-9.42,33.94-0.07c2.31,2.3,4.13,5.05,5.34,8.07L192.1,240.13z"/>
<path class="st6" d="M240.1,320.13l24,22.64v89.36l-24,40l-24-48v-80L240.1,320.13z"/>
<g class="st7">
	<path class="st8" d="M128.1,248.13c-7.84,7.84-52.24,23.36-95.44,37.2c-10.88,3.44-21.76,6.8-31.84,9.92l47.28-55.12l-16-32
		l0.16-0.24c6.32,1.6,13.2,3.36,20.24,5.28C91.86,223.89,137.46,238.77,128.1,248.13L128.1,248.13z"/>
</g>
<g class="st7">
	<path class="st8" d="M172.43,504.13H128.1v-96l45.34,16L172.43,504.13z"/>
</g>
<path class="st2" d="M190.02,238.61L54.26,136.77c-10.62-7.93-12.79-22.97-4.86-33.59c0.7-0.94,1.47-1.82,2.3-2.65l17.44-17.44
	L190.02,238.61z"/>
<path class="st9" d="M240.1,208.13c-17.67,0-32,14.33-32,32s14.33,32,32,32s32-14.33,32-32S257.77,208.13,240.1,208.13z"/>
<path class="st10" d="M288.1,240.13c0,26.51-21.49,48-48,48s-48-21.49-48-48s21.49-48,48-48c9.27-0.03,18.34,2.67,26.08,7.76
	C279.86,208.69,288.12,223.86,288.1,240.13z"/>
<path class="st11" d="M266.18,199.89c-35.6,2.16-57.44,34.08-69.6,60.56c-11.19-24.07-0.76-52.65,23.31-63.84
	c6.33-2.94,13.23-4.47,20.21-4.48C249.36,192.1,258.44,194.8,266.18,199.89z"/>
<path class="st9" d="M104.1,312.13c-4.42,0-8-3.58-8-8v-32c0-4.42,3.58-8,8-8s8,3.58,8,8v32
	C112.1,308.55,108.52,312.13,104.1,312.13z"/>
<path class="st12" d="M152.1,312.13c-4.42,0-8-3.58-8-8v-32c0-4.42,3.58-8,8-8s8,3.58,8,8v32
	C160.1,308.55,156.52,312.13,152.1,312.13z"/>
</svg>
