<?xml version="1.0" encoding="utf-8"?>
<!-- Generator: Adobe Illustrator 23.1.0, SVG Export Plug-In . SVG Version: 6.00 Build 0)  -->
<svg version="1.1" id="Слой_1" xmlns="http://www.w3.org/2000/svg" xmlns:xlink="http://www.w3.org/1999/xlink" x="0px" y="0px"
	 viewBox="0 0 79.72 32.67" style="enable-background:new 0 0 79.72 32.67;" xml:space="preserve">
<style type="text/css">
	.st0{fill:#F9F9F9;}
	.st1{fill:#B39DDB;}
	.st2{fill:#43B3AD;}
</style>
<g>
	<g>
		<path class="st0" d="M3.66,26.22V11.94h3.03v14.28H3.66z"/>
		<path class="st0" d="M15.79,26.22h-3.03V14.46H8.88v-2.52h10.78v2.52h-3.88V26.22z"/>
		<path class="st0" d="M31.13,15.3v1.51l-1.71,0.44c0.31,0.49,0.47,1.04,0.47,1.64c0,1.17-0.41,2.08-1.23,2.74s-1.95,0.98-3.4,0.98
			l-0.54-0.03l-0.44-0.05c-0.31,0.23-0.46,0.49-0.46,0.78c0,0.43,0.55,0.64,1.64,0.64h1.86c1.2,0,2.11,0.26,2.74,0.77
			S31,26.01,31,27c0,1.28-0.53,2.27-1.6,2.97s-2.59,1.05-4.58,1.05c-1.52,0-2.69-0.27-3.49-0.8s-1.21-1.27-1.21-2.23
			c0-0.66,0.21-1.21,0.62-1.65s1.01-0.76,1.81-0.95c-0.31-0.13-0.57-0.34-0.8-0.64s-0.34-0.61-0.34-0.94c0-0.42,0.12-0.76,0.36-1.04
			s0.59-0.55,1.04-0.82c-0.57-0.25-1.03-0.64-1.36-1.19s-0.5-1.19-0.5-1.93c0-1.19,0.39-2.11,1.16-2.76s1.88-0.98,3.32-0.98
			c0.31,0,0.67,0.03,1.09,0.08s0.69,0.1,0.81,0.12H31.13z M22.7,27.76c0,0.41,0.2,0.73,0.59,0.97s0.95,0.35,1.66,0.35
			c1.07,0,1.9-0.15,2.51-0.44s0.91-0.69,0.91-1.2c0-0.41-0.18-0.69-0.54-0.85s-0.91-0.23-1.66-0.23h-1.54c-0.55,0-1,0.13-1.37,0.39
			S22.7,27.34,22.7,27.76z M23.78,18.88c0,0.59,0.14,1.06,0.41,1.41s0.68,0.52,1.24,0.52c0.56,0,0.97-0.17,1.23-0.52
			s0.39-0.81,0.39-1.41c0-1.31-0.54-1.97-1.62-1.97C24.33,16.9,23.78,17.56,23.78,18.88z"/>
		<path class="st0" d="M37.87,26.42c-1.76,0-3.13-0.48-4.12-1.46s-1.48-2.34-1.48-4.12c0-1.83,0.46-3.24,1.37-4.24
			s2.18-1.5,3.79-1.5c1.54,0,2.74,0.44,3.6,1.32s1.29,2.09,1.29,3.64v1.45h-7.04c0.03,0.85,0.28,1.51,0.75,1.98S37.16,24.2,38,24.2
			c0.66,0,1.28-0.07,1.87-0.21s1.2-0.35,1.84-0.65v2.3c-0.52,0.26-1.08,0.45-1.67,0.58S38.72,26.42,37.87,26.42z M37.45,17.22
			c-0.63,0-1.13,0.2-1.48,0.6s-0.56,0.97-0.62,1.7h4.18c-0.01-0.74-0.21-1.3-0.58-1.7S38.08,17.22,37.45,17.22z"/>
		<path class="st0" d="M54.82,26.22h-2.98v-6.38c0-0.79-0.14-1.38-0.42-1.77s-0.73-0.59-1.34-0.59c-0.83,0-1.44,0.28-1.81,0.83
			s-0.56,1.48-0.56,2.77v5.14h-2.98V15.3h2.28l0.4,1.4h0.17c0.33-0.53,0.79-0.93,1.37-1.2s1.25-0.41,1.99-0.41
			c1.27,0,2.23,0.34,2.89,1.03s0.99,1.68,0.99,2.97V26.22z"/>
		<path class="st0" d="M65.62,26.22l-0.4-1.4h-0.16c-0.32,0.51-0.77,0.9-1.36,1.18s-1.25,0.42-2,0.42c-1.28,0-2.25-0.34-2.9-1.03
			s-0.98-1.67-0.98-2.96V15.3h2.98v6.38c0,0.79,0.14,1.38,0.42,1.77s0.73,0.59,1.34,0.59c0.83,0,1.44-0.28,1.81-0.83
			s0.56-1.48,0.56-2.77V15.3h2.98v10.92H65.62z"/>
		<path class="st0" d="M78.65,22.98c0,1.12-0.39,1.97-1.17,2.56s-1.94,0.88-3.49,0.88c-0.79,0-1.47-0.05-2.03-0.16
			s-1.08-0.27-1.57-0.47v-2.46c0.55,0.26,1.18,0.48,1.87,0.65s1.3,0.26,1.83,0.26c1.08,0,1.62-0.31,1.62-0.94
			c0-0.23-0.07-0.42-0.21-0.57s-0.39-0.31-0.74-0.5s-0.82-0.4-1.41-0.65c-0.84-0.35-1.46-0.68-1.85-0.98s-0.68-0.64-0.86-1.03
			s-0.27-0.86-0.27-1.43c0-0.97,0.38-1.72,1.13-2.25s1.82-0.8,3.2-0.8c1.31,0,2.59,0.29,3.84,0.86l-0.9,2.15
			c-0.55-0.23-1.06-0.43-1.53-0.58s-0.96-0.22-1.46-0.22c-0.88,0-1.32,0.24-1.32,0.71c0,0.27,0.14,0.5,0.42,0.69s0.9,0.48,1.86,0.87
			c0.85,0.35,1.48,0.67,1.88,0.97s0.69,0.64,0.88,1.04S78.65,22.44,78.65,22.98z"/>
	</g>
	<g>
		<polygon class="st1" points="1,8.09 4.91,4.46 9,8.09 9,10.46 5,7.37 1,10.46 		"/>
		<g>
			<polygon class="st2" points="1,3.62 4.91,0 9,3.62 9,6 5,2.91 1,6 			"/>
		</g>
	</g>
</g>
</svg>
