<?xml version="1.0" encoding="utf-8"?>
<!-- Generator: Adobe Illustrator 23.1.0, SVG Export Plug-In . SVG Version: 6.00 Build 0)  -->
<svg version="1.1" id="Слой_1" xmlns="http://www.w3.org/2000/svg" xmlns:xlink="http://www.w3.org/1999/xlink" x="0px" y="0px"
	 viewBox="0 0 480 534" style="enable-background:new 0 0 480 534;" xml:space="preserve">
<style type="text/css">
	.st0{fill:#268C56;}
	.st1{fill:#116035;}
	.st2{fill:#33B575;}
	.st3{fill:#308E87;}
	.st4{fill:#6ECEC4;}
	.st5{fill:#48D88D;}
	.st6{fill:#3AAFA9;}
	.st7{fill:#F4976C;}
	.st8{fill:#F26D6D;}
	.st9{fill:#5DE5E0;}
	.st10{fill:#B39DDB;}
	.st11{fill:#4D6E9B;}
	.st12{fill:#CFBC81;}
	.st13{fill:#1F665F;}
</style>
<path class="st0" d="M127.75,158.05h32v32h-32V158.05z"/>
<path class="st0" d="M303.75,310.05h32v32h-32V310.05z"/>
<path class="st1" d="M351.75,310.05h32v32h-32V310.05z"/>
<path class="st2" d="M215.55,499.62l-12.28,10.91L215.55,499.62L215.55,499.62z"/>
<path class="st3" d="M417.35,200.21l-36.96,27.68l-15.52,11.6l16.64,27.68c2.65,4.51,2.95,10.03,0.8,14.8l-40,88
	c-1.59,3.53-4.4,6.38-7.92,8l-69.92,31.76l12.08,16.08c4.97,6.65,4.03,15.99-2.16,21.52l-49.76,44.24l-9.07,8.08l48.19,34.4l72-64
	l-24-32l88-40l40-88l-24-40l64-48l-8-48l-52.53-15.01l4.29,25.73C424.53,190.67,422.15,196.63,417.35,200.21L417.35,200.21z"/>
<path class="st4" d="M303.75,86.05l-40-16l-24,32h-64l-8.7-48l-119.3,48l8,72h-32l-24,48l64,40l14.07,3.25l-5.99-53.49
	c-0.77-7.14,3.27-13.93,9.92-16.64l88.96-35.76l30.4-12.24c2.7-1.04,5.63-1.35,8.48-0.88c1.83,0.23,3.6,0.83,5.2,1.76
	c4.21,2.31,7.15,6.4,8,11.12l6.32,34.88h42.64l16-21.36l3.2-4.24c4.35-5.76,12-7.92,18.72-5.28l40,16
	c6.08,2.44,10.06,8.33,10.08,14.88v27.92l20.62,5.91l36.98-27.67c4.8-3.58,7.18-9.54,6.16-15.44l-4.29-25.73l-115.47-32.99V86.05z"
	/>
<path class="st5" d="M417.35,200.21l-36.98,27.67l0.02,0.01L417.35,200.21z"/>
<g>
	<path class="st6" d="M276.55,425.81l-12.08-16.08l69.92-31.76c3.52-1.62,6.33-4.47,7.92-8l40-88c2.15-4.77,1.85-10.29-0.8-14.8
		l-16.64-27.68l15.5-11.61l-20.62-5.91v-27.92c-0.02-6.55-4-12.44-10.08-14.88l-40-16c-6.72-2.64-14.37-0.48-18.72,5.28l-3.2,4.24
		l-16,21.36h-42.64l-6.32-34.88c-0.85-4.72-3.79-8.81-8-11.12c-1.6-0.93-3.37-1.53-5.2-1.76c-2.85-0.47-5.78-0.16-8.48,0.88
		l-30.4,12.24l-88.96,35.76c-6.65,2.71-10.69,9.5-9.92,16.64l5.99,53.49l89.93,20.75l8,40l32,16l-8,48l40,56l-32,48l7.8,5.6
		l58.84-52.32C280.59,441.8,281.52,432.46,276.55,425.81L276.55,425.81z"/>
	<path class="st6" d="M274.39,447.33l-58.84,52.29l0.01,0.01l9.07-8.06L274.39,447.33z"/>
	<path class="st6" d="M380.39,227.89l-0.02-0.01l-15.5,11.61L380.39,227.89z"/>
</g>
<path class="st7" d="M342.71,56.05c0,0.34-0.06,0.66-0.06,1h21.1v-49h-42.72C334.84,20.18,342.74,37.68,342.71,56.05z"/>
<path class="st8" d="M283.75,57.05h58.9c0-0.34,0.06-0.66,0.06-1c0.03-18.38-7.88-35.87-21.68-48h-37.28V57.05z"/>
<path class="st9" d="M143.75,198.05c-4.42,0-8-3.58-8-8v-32c0-4.42,3.58-8,8-8s8,3.58,8,8v32
	C151.75,194.47,148.17,198.05,143.75,198.05z"/>
<path class="st10" d="M319.75,350.05c-4.42,0-8-3.58-8-8v-32c0-4.42,3.58-8,8-8s8,3.58,8,8v32
	C327.75,346.47,324.17,350.05,319.75,350.05z"/>
<path class="st11" d="M367.75,350.05c-4.42,0-8-3.58-8-8v-32c0-4.42,3.58-8,8-8s8,3.58,8,8v32
	C375.75,346.47,372.17,350.05,367.75,350.05z"/>
<path class="st12" d="M283.75,222.05c-4.42,0-8-5.1-8-11.38V11.44c0-6.29,3.58-11.38,8-11.38s8,5.1,8,11.38v199.23
	C291.75,216.95,288.17,222.05,283.75,222.05z"/>
<path class="st13" d="M239.75,222.05h-8c-4.42,0-8-3.58-8-8s3.58-8,8-8h8c4.42,0,8,3.58,8,8S244.17,222.05,239.75,222.05z"/>
<path class="st11" d="M268.75,240.05h-8c-4.42,0-8-3.58-8-8s3.58-8,8-8h8c4.42,0,8,3.58,8,8S273.17,240.05,268.75,240.05z"/>
</svg>
