<?xml version="1.0" encoding="utf-8"?>
<!-- Generator: Adobe Illustrator 23.1.0, SVG Export Plug-In . SVG Version: 6.00 Build 0)  -->
<svg version="1.1" id="Слой_1" xmlns="http://www.w3.org/2000/svg" xmlns:xlink="http://www.w3.org/1999/xlink" x="0px" y="0px"
	 viewBox="0 0 512 368" style="enable-background:new 0 0 512 368;" xml:space="preserve">
<style type="text/css">
	.st0{fill:#F4976C;}
	.st1{fill:#F26D6D;}
	.st2{fill:#EFCB73;}
	.st3{fill:#CFBC81;}
	.st4{fill:#54C6BD;}
	.st5{fill:#3AAFA9;}
	.st6{fill:#D7CBEF;}
	.st7{fill:#B39DDB;}
</style>
<g>
	<circle class="st0" cx="256.37" cy="160.27" r="160"/>
	<path class="st1" d="M312.21,10.29c47.71,25.64,80.16,76.02,80.16,133.98c0,83.95-68.05,152-152,152
		c-57.96,0-108.34-32.44-133.98-80.16c22.66,60.83,81.25,104.16,149.98,104.16c88.37,0,160-71.63,160-160
		C416.37,91.54,373.04,32.95,312.21,10.29L312.21,10.29z"/>
	<path class="st2" d="M365.62,304.27c-8.49,0-16.63-3.37-22.63-9.37l-13.26-13.26c-6-6-14.14-9.37-22.63-9.37H205.62
		c-8.49,0-16.63,3.37-22.63,9.37l-13.26,13.26c-6,6-14.14,9.37-22.63,9.37H0.37v64h512v-64H365.62z"/>
	<path class="st3" d="M365.62,304.27c-8.49,0-16.63-3.37-22.63-9.37l-13.26-13.26c-6-6-14.14-9.37-22.63-9.37H205.62
		c-8.49,0-16.63,3.37-22.63,9.37l-13.26,13.26c-6,6-14.14,9.37-22.63,9.37H0.37v16h149.74c8.49,0,16.63-3.37,22.63-9.37l13.26-13.26
		c6-6,14.14-9.37,22.63-9.37h95.49c8.49,0,16.63,3.37,22.63,9.37L340,310.89c6,6,14.14,9.37,22.63,9.37h149.74v-16H365.62z"/>
	<path class="st4" d="M224.37,144.27h-32v-32c0-8.84-7.16-16-16-16s-16,7.16-16,16v48c0,8.84,7.16,16,16,16h48"/>
	<path class="st5" d="M208.37,144.27h16v32h-16V144.27z"/>
	<path class="st4" d="M288.37,208.27h32v-32c0-8.84,7.16-16,16-16s16,7.16,16,16v48c0,8.84-7.16,16-16,16h-48"/>
	<path class="st5" d="M288.37,208.27h16v32h-16V208.27z"/>
	<g>
		<path class="st4" d="M288.37,272.27v-192c0-8.84-7.16-16-16-16h-32c-8.84,0-16,7.16-16,16v192"/>
	</g>
	<g>
		<path class="st5" d="M288.37,80.27v192h-16v-208C281.21,64.27,288.37,71.43,288.37,80.27z"/>
	</g>
	<g>
		<path class="st3" d="M368.37,328.77h16v15h-16V328.77z"/>
	</g>
	<g>
		<path class="st3" d="M160.37,328.77h16v15h-16V328.77z"/>
	</g>
	<g>
		<path class="st6" d="M464.37,40.27c-17.67,0-32,14.33-32,32c0-8.84-7.16-16-16-16s-16,7.16-16,16c0-17.67-14.33-32-32-32
			s-32,14.33-32,32s14.33,32,32,32h96c17.67,0,32-14.33,32-32S482.04,40.27,464.37,40.27z"/>
		<path class="st7" d="M464.37,40.27c-4.24,0-8.29,0.83-12,2.33c11.73,4.75,20,16.24,20,29.66c0,17.67-14.33,32-32,32h24
			c17.67,0,32-14.33,32-32S482.04,40.27,464.37,40.27z"/>
	</g>
	<g>
		<path class="st6" d="M144.37,200.27c-17.67,0-32,14.33-32,32c0-8.84-7.16-16-16-16s-16,7.16-16,16c0-17.67-14.33-32-32-32
			s-32,14.33-32,32s14.33,32,32,32h96c17.67,0,32-14.33,32-32S162.04,200.27,144.37,200.27z"/>
		<path class="st7" d="M144.37,200.27c-4.24,0-8.29,0.83-12,2.33c11.73,4.75,20,16.24,20,29.67c0,17.67-14.33,32-32,32h24
			c17.67,0,32-14.33,32-32S162.04,200.27,144.37,200.27z"/>
	</g>
</g>
</svg>
