<?xml version="1.0" encoding="utf-8"?>
<!-- Generator: Adobe Illustrator 23.1.0, SVG Export Plug-In . SVG Version: 6.00 Build 0)  -->
<svg version="1.1" id="Слой_1" xmlns="http://www.w3.org/2000/svg" xmlns:xlink="http://www.w3.org/1999/xlink" x="0px" y="0px"
	 viewBox="0 0 496 541" style="enable-background:new 0 0 496 541;" xml:space="preserve">
<style type="text/css">
	.st0{fill:#F4976C;}
	.st1{fill:#B39DDB;}
	.st2{fill:#CFBC81;}
	.st3{fill:#3AAFA9;}
	.st4{fill:#EFCB73;}
	.st5{opacity:0.44;}
	.st6{fill:#F26D6D;}
	.st7{fill:#308E87;}
	.st8{opacity:0.15;}
	.st9{fill:#FFFFFF;}
	.st10{fill:#1F665F;}
</style>
<g>
	<path class="st0" d="M434.01,184.07c0.02-8.26,4.35-15.8,11.31-19.68l19.16-10.67l-19.7-9.44c-6.77-3.24-14.55-4.89-21.77-4.91
		c-28.66-0.05-52.03,24.95-52.09,55.74s23.22,55.88,51.88,55.94c18.61,0.04,32.9-10.88,42.17-28.47l10.6-20.1l-21.25,3.57
		C442.18,207.98,433.98,197.58,434.01,184.07z"/>
	<path class="st1" d="M101.93,23.4c0,4.19-2.97,7.59-6.62,7.59H68.85C57.9,30.99,49,41.2,49,53.75s8.9,22.77,19.85,22.77h13.23
		c3.65,0,6.62,3.4,6.62,7.59v15.18h13.23V84.1c0-12.55-8.9-22.77-19.85-22.77H68.85c-3.65,0-6.62-3.4-6.62-7.59s2.97-7.59,6.62-7.59
		h26.47c10.95,0,19.85-10.21,19.85-22.77s-8.9-22.77-19.85-22.77h-60v15.18h60C98.97,15.81,101.93,19.21,101.93,23.4z"/>
	<path class="st2" d="M257.24,187.68c-2.78,0-5.37-1.44-6.82-3.81l-72.88-118.4c-2.5-3.64-1.58-8.62,2.06-11.12
		c3.64-2.5,8.62-1.58,11.12,2.06c0.15,0.22,0.29,0.44,0.41,0.67l72.88,118.4c2.32,3.76,1.14,8.69-2.62,11.01
		c-1.26,0.77-2.71,1.19-4.19,1.19L257.24,187.68z"/>
	<path class="st2" d="M257.22,187.68c-4.42-0.01-8-3.59-7.99-8.01c0-1.45,0.4-2.87,1.14-4.11l71.12-118.4
		c2.27-3.79,7.19-5.02,10.98-2.74c3.79,2.27,5.02,7.19,2.74,10.98l0,0l-71.12,118.4C262.64,186.21,260.04,187.69,257.22,187.68z"/>
	<path class="st2" d="M96.66,197.28c-2.86,0.01-5.51-1.52-6.94-4l-32-56c-2.1-3.89-0.65-8.74,3.23-10.84
		c3.76-2.03,8.45-0.75,10.65,2.91l25.06,43.84l25.06-43.84c2.28-3.78,7.2-5,10.98-2.72c3.66,2.21,4.94,6.9,2.91,10.65l-32,56
		C102.17,195.76,99.52,197.29,96.66,197.28z"/>
	<path class="st3" d="M96.35,173.28l-53.34,80H150.3L96.35,173.28z"/>
	<path class="st4" d="M177.31,293.28l-100.32,248H0.35v-224l42.64-64h107.28L177.31,293.28z"/>
	<g class="st5">
		<path class="st0" d="M177.31,293.28l-5.68,14.96L76.99,541.28H0.35v-72.64l123.44-199.36l9.92-16h16.56l8.96,13.2L177.31,293.28z"
			/>
	</g>
	<path class="st3" d="M339.31,293.28h-162l79.92-129.6l28.4,44.8L339.31,293.28z"/>
	<path class="st3" d="M496.35,541.28h-472l97.6-158.24l31.36,14.24l35.28-16l0.88,0.4l34.32,15.6l35.2-16l35.28,16l35.28-16
		l35.28,16l31.28-14.24L496.35,541.28z"/>
	<path class="st6" d="M396.11,383.04l-31.28,14.24l-35.28-16l-35.28,16l-35.28-16l-35.2,16l-34.32-15.6l-0.88-0.4l-35.28,16
		l-31.36-14.24l55.36-89.76h162L396.11,383.04z"/>
	<path class="st7" d="M176.35,541.28l80-104l80,104H176.35z"/>
	<g class="st8">
		<path class="st9" d="M288.35,213.28c0,0-15.2,21.76-49.04,80c-13.6,23.28-30.08,52.48-49.84,88.4
			c-23.6,42.96-51.76,95.6-84.88,159.6H24.35l97.6-158.24l55.36-89.76l79.92-129.6l28.4,44.8L288.35,213.28z"/>
	</g>
	<g>
		<path class="st10" d="M208.35,365.28c-4.42,0-8-3.58-8-8v-24c0-4.42,3.58-8,8-8s8,3.58,8,8v24
			C216.35,361.7,212.77,365.28,208.35,365.28z"/>
		<path class="st10" d="M144.35,493.28c-4.42,0-8-3.58-8-8v-24c0-4.42,3.58-8,8-8s8,3.58,8,8v24
			C152.35,489.7,148.77,493.28,144.35,493.28z"/>
		<path class="st10" d="M368.35,493.28c-4.42,0-8-3.58-8-8v-24c0-4.42,3.58-8,8-8s8,3.58,8,8v24
			C376.35,489.7,372.77,493.28,368.35,493.28z"/>
		<path class="st10" d="M256.35,365.28c-4.42,0-8-3.58-8-8v-24c0-4.42,3.58-8,8-8c4.42,0,8,3.58,8,8v24
			C264.35,361.7,260.77,365.28,256.35,365.28z"/>
	</g>
	<path class="st10" d="M39.68,369.95c-4.05,0-7.33-3.28-7.33-7.33v-22c0-4.05,3.28-7.33,7.33-7.33s7.33,3.28,7.33,7.33v22
		C47.01,366.67,43.73,369.95,39.68,369.95z"/>
	<path class="st10" d="M39.68,421.28c-4.05,0-7.33-3.28-7.33-7.33v-22c0-4.05,3.28-7.33,7.33-7.33s7.33,3.28,7.33,7.33v22
		C47.01,418,43.73,421.28,39.68,421.28z"/>
	<path class="st10" d="M88.35,365.28c-4.42,0-8-3.58-8-8v-24c0-4.42,3.58-8,8-8s8,3.58,8,8v24
		C96.35,361.7,92.77,365.28,88.35,365.28z"/>
	<path class="st10" d="M304.35,365.28c-4.42,0-8-3.58-8-8v-24c0-4.42,3.58-8,8-8s8,3.58,8,8v24
		C312.35,361.7,308.77,365.28,304.35,365.28z"/>
</g>
</svg>
