<svg version="1.1" id="Слой_1" xmlns="http://www.w3.org/2000/svg" x="0" y="0" viewBox="0 0 698.86 699" xml:space="preserve"><style>.st1{fill:none;stroke:#c7c7c7;stroke-width:29;stroke-miterlimit:10}.st2{fill:#3aafa9}.st3{fill:#b39ddb}.st4{fill:#cfbc81}</style><circle cx="239.86" cy="463.09" r="17.5" fill="#f26d6d"/><circle class="st1" cx="239.39" cy="462.54" r="61.86"/><circle class="st1" cx="237.14" cy="466.32" r="139.69"/><circle class="st1" cx="236" cy="463" r="221.5"/><path class="st2" d="M698.86 102.01l-78.94-4.41-32.53 32.53 76.57 6.78z"/><path class="st3" d="M613.83 185.71l-78.95-4.41-32.52 32.53 76.57 6.77z"/><path class="st4" d="M657.22 143.65l-78.94-4.41-32.53 32.53 76.58 6.77z"/><path fill="#919191" d="M623.31 86.09l-9.48-9.48-330.69 330.68-25.07-25.07-19.28 78.81 76.03-17.99-24.23-26.94z"/><path class="st2" d="M597.94 0l4.41 78.95-32.53 32.52-6.77-76.57z"/><path class="st3" d="M514.25 85.03l4.4 78.95-32.52 32.53-6.78-76.58z"/><path class="st4" d="M556.31 41.64l4.4 78.94-32.52 32.53-6.78-76.57z"/></svg>