<svg version="1.1" id="Слой_1" xmlns="http://www.w3.org/2000/svg" x="0" y="0" viewBox="0 0 450 512" xml:space="preserve"><style>.st0{fill:#efcb73}.st1{fill:#f26d6d}.st6{fill:#cfbc81}.st7{fill:#4ec46f}.st8{fill:#479860}</style><path class="st0" d="M224.85 375.49h-15v60h30v-60h-15z"/><path class="st1" d="M224.85 375.49h15v60h-15v-60z"/><path d="M188.22 232.13c-15.33 1.71-30.66-3.03-46.16-14.92-15.12 23.74-23.62 62.47-27.4 88.48 26.01-3.79 64.74-12.28 88.48-27.4-11.88-15.48-16.63-30.81-14.92-46.16zm-46.17-58.36c15.48-11.87 30.81-16.62 46.17-14.91-1.71-15.35 3.04-30.69 14.91-46.17-23.74-15.12-62.47-23.61-88.48-27.4 3.79 26.01 12.28 64.74 27.4 88.48zm59.75 21.77c-12.74-8.96-24.39-9.7-38.45-.07 14.67 9.99 26.37 8.63 38.45.07z" fill="none"/><path d="M367.09 69.4l-16.14-16.14c-3.66.3-83.2 7-126.09 37.98-42.9-30.98-122.44-37.69-126.1-37.98L82.62 69.4c.3 3.66 7 83.2 37.98 126.09-30.98 42.89-37.68 122.43-37.98 126.09l16.14 16.14c3.66-.3 83.2-7 126.09-37.98 42.89 30.98 122.43 37.68 126.09 37.98l16.14-16.14c-.3-3.66-7-83.2-37.98-126.09 30.99-42.89 37.69-122.43 37.99-126.09zm-32.04 15.89c-3.79 26.01-12.28 64.74-27.4 88.48-15.48-11.87-30.81-16.62-46.17-14.91 1.71-15.35-3.05-30.69-14.92-46.17 23.75-15.12 62.48-23.61 88.49-27.4zm-48.69 110.19c-14.67 10-26.36 8.64-38.46.06 12.72-8.95 24.37-9.72 38.46-.06zM114.65 305.69c3.79-26.01 12.28-64.75 27.4-88.48 15.5 11.89 30.84 16.62 46.16 14.92-1.71 15.35 3.04 30.68 14.91 46.16-23.72 15.12-62.46 23.62-88.47 27.4zm48.7-110.22c14.06-9.63 25.71-8.89 38.45.07-12.08 8.56-23.78 9.92-38.45-.07zm24.87-36.61c-15.35-1.71-30.69 3.04-46.17 14.91-15.12-23.74-23.61-62.47-27.4-88.48 26.01 3.79 64.74 12.28 88.48 27.4-11.87 15.48-16.62 30.82-14.91 46.17zm36.63 98.09c-9.98-14.68-8.6-26.37 0-38.47 8.6 12.1 9.98 23.79 0 38.47zm0-84.45c-8.6-12.1-9.98-23.79 0-38.47 9.98 14.68 8.6 26.37 0 38.47zm110.2 133.19c-26.01-3.79-64.74-12.28-88.48-27.4 11.87-15.48 16.62-30.81 14.92-46.16 15.33 1.71 30.66-3.03 46.16-14.92 15.12 23.74 23.62 62.47 27.4 88.48z" fill="#54c6bd"/><path d="M367.09 321.59c-.3-3.66-7-83.2-37.98-126.09 30.98-42.89 37.68-122.43 37.98-126.09l-16.14-16.14c-3.66.3-83.2 7-126.09 37.98v42.79c9.98 14.68 8.6 26.37 0 38.47v45.97c8.6 12.1 9.98 23.79 0 38.47v42.79c42.89 30.98 122.43 37.68 126.09 37.98l16.14-16.13zm-32.04-236.3c-3.79 26.01-12.28 64.74-27.4 88.48-15.48-11.87-30.81-16.62-46.17-14.91 1.71-15.35-3.05-30.69-14.92-46.17 23.75-15.12 62.48-23.61 88.49-27.4zm-48.69 110.19c-14.67 10-26.36 8.64-38.46.06 12.72-8.95 24.37-9.72 38.46-.06zm-39.79 82.81c11.87-15.48 16.62-30.81 14.92-46.16 15.33 1.71 30.66-3.03 46.16-14.92 15.12 23.74 23.62 62.47 27.4 88.48-26.01-3.78-64.74-12.28-88.48-27.4z" fill="#3aafa9"/><path d="M224.85.49c-107.7 0-195 87.31-195 195s87.3 195 195 195 195-87.3 195-195-87.3-195-195-195zm0 360c-90.98 0-165-74.02-165-165s74.02-165 165-165 165 74.02 165 165-74.02 165-165 165z" fill="#f4976c"/><path class="st1" d="M419.85 195.49c0-107.69-87.3-195-195-195v30c90.98 0 165 74.02 165 165s-74.02 165-165 165v30c107.7 0 195-87.3 195-195z"/><path class="st6" d="M404.85 210.49h-15v120l15 30 15-30v-120h-15z"/><path class="st0" d="M419.85 210.49h-15v150l15-30v-120z"/><path class="st7" d="M419.85 330.49h-30c-12.4 12.04-30 40.24-30 87.42v5.16c0 30.91 12.54 56.96 34.39 78.82l10.61 10.61 10.61-10.61c21.86-21.86 34.39-47.91 34.39-78.82v-5.16c0-47.46-17.58-75.48-30-87.42z"/><path class="st8" d="M449.85 423.07v-5.16c0-47.46-17.58-75.48-30-87.42h-15v182l10.61-10.61c21.85-21.85 34.39-47.9 34.39-78.81z"/><circle class="st0" cx="404.85" cy="195.49" r="45"/><path class="st6" d="M449.85 195.49c0-24.81-20.19-45-45-45v90c24.82 0 45-20.18 45-45zm-405 15h-15v120l15 30 15-30v-120h-15z"/><path class="st0" d="M59.85 210.49h-15v150l15-30v-120z"/><path class="st7" d="M59.85 330.49h-30c-12.4 12.04-30 40.24-30 87.42v5.16c0 30.91 12.54 56.96 34.4 78.82l10.6 10.61 10.6-10.61c21.86-21.86 34.4-47.91 34.4-78.82v-5.16c0-47.46-17.58-75.48-30-87.42z"/><path class="st8" d="M89.85 423.07v-5.16c0-47.46-17.58-75.48-30-87.42h-15v182l10.6-10.61c21.86-21.85 34.4-47.9 34.4-78.81z"/><circle class="st0" cx="44.85" cy="195.49" r="45"/><path class="st6" d="M89.85 195.49c0-24.81-20.19-45-45-45v90c24.82 0 45-20.18 45-45z"/><path class="st0" d="M224.85 420.49c-24.81 0-45 22.19-45 47v45h90v-45c0-24.81-20.18-47-45-47z"/><path class="st6" d="M269.85 467.49c0-24.81-20.19-47-45-47v92h45v-45z"/></svg>