<svg version="1.1" id="Слой_1" xmlns="http://www.w3.org/2000/svg" x="0" y="0" viewBox="0 0 480 504" xml:space="preserve"><style>.st2{fill:#3aafa9}.st3{fill:#54c6bd}.st4{fill:#5de5e0}.st7{opacity:.5}.st8{fill:#c76b28}.st9{fill:#e93527}</style><path d="M480.1 288.13l-32 32-208-80 208-8 32 56z" fill="#6ecec4"/><path d="M280.1 304.13l-1 200h-150l-1-96h-72c-13.25 0-24-10.75-24-24v-16l16-64-48-8 .72-.88 47.28-55.12-16-32 .16-.24 40.8-57.04L280.1 304.13z" fill="#f4976c"/><path class="st2" d="M135.42 98.42L256.1 48.13l32-40-48-8-121.73 63.98 17.05 34.31zM240.1 288.13l184 96 56-16-32-48-162.41-64.96-45.59 32.96zm45.08-85.09l170.91-66.91 24-56-72-24-248 104 32 80 93.09-37.09z"/><path class="st3" d="M464.1 8.13l-40 48-264 104-24.88-34.8-15.12-21.2 136-56 88-32 56-16 41.76 5.2 22.24 2.8z"/><path class="st4" d="M441.86 5.33l-31.28 12.24-260 101.76-15.36 6-15.12-21.2 136-56 88-32 56-16 41.76 5.2zm38.24 186.8l-32 40-167.12 6.42-8.88-30.42 144-56 39.36 24.64 24.64 15.36z"/><path class="st3" d="M455.46 176.77l-170.8 50.24-12.56-18.88 144-56 39.36 24.64z"/><path class="st4" d="M466.1 479.13h-56l-136-104-24-88 200 144 13.68 41.12 2.32 6.88z"/><path class="st3" d="M466.1 479.13h-56l-136-104-9.76-35.78 199.44 132.9 2.32 6.88z"/><path d="M192.1 240.13l-2.08-1.52L54.26 136.77c-10.62-7.93-12.79-22.97-4.86-33.59.7-.94 1.47-1.82 2.3-2.65l34.64-34.64c9.35-9.39 24.55-9.42 33.94-.07 2.31 2.3 4.13 5.05 5.34 8.07l66.48 166.24z" fill="#308e87"/><path d="M240.1 320.13l24 22.64v89.36l-24 40-24-48v-80l24-24z" fill="#b39ddb"/><g class="st7"><path class="st8" d="M128.1 248.13c-7.84 7.84-52.24 23.36-95.44 37.2-10.88 3.44-21.76 6.8-31.84 9.92l47.28-55.12-16-32 .16-.24c6.32 1.6 13.2 3.36 20.24 5.28 39.36 10.72 84.96 25.6 75.6 34.96z"/></g><g class="st7"><path class="st8" d="M172.43 504.13H128.1v-96l45.34 16-1.01 80z"/></g><path class="st2" d="M190.02 238.61L54.26 136.77c-10.62-7.93-12.79-22.97-4.86-33.59.7-.94 1.47-1.82 2.3-2.65l17.44-17.44 120.88 155.52z"/><path class="st9" d="M240.1 208.13c-17.67 0-32 14.33-32 32s14.33 32 32 32 32-14.33 32-32-14.33-32-32-32z"/><path d="M288.1 240.13c0 26.51-21.49 48-48 48s-48-21.49-48-48 21.49-48 48-48c9.27-.03 18.34 2.67 26.08 7.76a47.78 47.78 0 0121.92 40.24z" fill="#f26d6d"/><path d="M266.18 199.89c-35.6 2.16-57.44 34.08-69.6 60.56-11.19-24.07-.76-52.65 23.31-63.84a48.156 48.156 0 0120.21-4.48 47.21 47.21 0 0126.08 7.76z" fill="#efcb73"/><path class="st9" d="M104.1 312.13c-4.42 0-8-3.58-8-8v-32c0-4.42 3.58-8 8-8s8 3.58 8 8v32c0 4.42-3.58 8-8 8z"/><path d="M152.1 312.13c-4.42 0-8-3.58-8-8v-32c0-4.42 3.58-8 8-8s8 3.58 8 8v32c0 4.42-3.58 8-8 8z" fill="#4d6e9b"/></svg>