<svg version="1.1" id="Слой_1" xmlns="http://www.w3.org/2000/svg" x="0" y="0" viewBox="0 0 79.72 32.67" xml:space="preserve"><path d="M3.66 26.22V11.94h3.03v14.28H3.66zm12.13 0h-3.03V14.46H8.88v-2.52h10.78v2.52h-3.88v11.76zM31.13 15.3v1.51l-1.71.44c.31.49.47 1.04.47 1.64 0 1.17-.41 2.08-1.23 2.74s-1.95.98-3.4.98l-.54-.03-.44-.05c-.31.23-.46.49-.46.78 0 .43.55.64 1.64.64h1.86c1.2 0 2.11.26 2.74.77S31 26.01 31 27c0 1.28-.53 2.27-1.6 2.97s-2.59 1.05-4.58 1.05c-1.52 0-2.69-.27-3.49-.8s-1.21-1.27-1.21-2.23c0-.66.21-1.21.62-1.65s1.01-.76 1.81-.95c-.31-.13-.57-.34-.8-.64s-.34-.61-.34-.94c0-.42.12-.76.36-1.04s.59-.55 1.04-.82c-.57-.25-1.03-.64-1.36-1.19s-.5-1.19-.5-1.93c0-1.19.39-2.11 1.16-2.76s1.88-.98 3.32-.98c.31 0 .67.03 1.09.08s.69.1.81.12h3.8zM22.7 27.76c0 .41.2.73.59.97s.95.35 1.66.35c1.07 0 1.9-.15 2.51-.44s.91-.69.91-1.2c0-.41-.18-.69-.54-.85s-.91-.23-1.66-.23h-1.54c-.55 0-1 .13-1.37.39s-.56.59-.56 1.01zm1.08-8.88c0 .59.14 1.06.41 1.41s.68.52 1.24.52c.56 0 .97-.17 1.23-.52s.39-.81.39-1.41c0-1.31-.54-1.97-1.62-1.97-1.1-.01-1.65.65-1.65 1.97zm14.09 7.54c-1.76 0-3.13-.48-4.12-1.46s-1.48-2.34-1.48-4.12c0-1.83.46-3.24 1.37-4.24s2.18-1.5 3.79-1.5c1.54 0 2.74.44 3.6 1.32s1.29 2.09 1.29 3.64v1.45h-7.04c.03.85.28 1.51.75 1.98s1.13.71 1.97.71c.66 0 1.28-.07 1.87-.21s1.2-.35 1.84-.65v2.3c-.52.26-1.08.45-1.67.58s-1.32.2-2.17.2zm-.42-9.2c-.63 0-1.13.2-1.48.6s-.56.97-.62 1.7h4.18c-.01-.74-.21-1.3-.58-1.7s-.87-.6-1.5-.6zm17.37 9h-2.98v-6.38c0-.79-.14-1.38-.42-1.77s-.73-.59-1.34-.59c-.83 0-1.44.28-1.81.83s-.56 1.48-.56 2.77v5.14h-2.98V15.3h2.28l.4 1.4h.17c.33-.53.79-.93 1.37-1.2s1.25-.41 1.99-.41c1.27 0 2.23.34 2.89 1.03s.99 1.68.99 2.97v7.13zm10.8 0l-.4-1.4h-.16c-.32.51-.77.9-1.36 1.18s-1.25.42-2 .42c-1.28 0-2.25-.34-2.9-1.03s-.98-1.67-.98-2.96V15.3h2.98v6.38c0 .79.14 1.38.42 1.77s.73.59 1.34.59c.83 0 1.44-.28 1.81-.83s.56-1.48.56-2.77V15.3h2.98v10.92h-2.29zm13.03-3.24c0 1.12-.39 1.97-1.17 2.56s-1.94.88-3.49.88c-.79 0-1.47-.05-2.03-.16s-1.08-.27-1.57-.47v-2.46c.55.26 1.18.48 1.87.65s1.3.26 1.83.26c1.08 0 1.62-.31 1.62-.94 0-.23-.07-.42-.21-.57s-.39-.31-.74-.5-.82-.4-1.41-.65c-.84-.35-1.46-.68-1.85-.98s-.68-.64-.86-1.03-.27-.86-.27-1.43c0-.97.38-1.72 1.13-2.25s1.82-.8 3.2-.8c1.31 0 2.59.29 3.84.86l-.9 2.15c-.55-.23-1.06-.43-1.53-.58s-.96-.22-1.46-.22c-.88 0-1.32.24-1.32.71 0 .27.14.5.42.69s.9.48 1.86.87c.85.35 1.48.67 1.88.97s.69.64.88 1.04.28.86.28 1.4z" fill="#1d1d1d"/><path fill="#b39ddb" d="M1 8.09l3.91-3.63L9 8.09v2.37L5 7.37l-4 3.09z"/><path fill="#43b3ad" d="M1 3.62L4.91 0 9 3.62V6L5 2.91 1 6z"/></svg>