<svg version="1.1" id="Слой_1" xmlns="http://www.w3.org/2000/svg" x="0" y="0" viewBox="0 0 480 534" xml:space="preserve"><style>.st6{fill:#3aafa9}.st11{fill:#4d6e9b}</style><path d="M127.75 158.05h32v32h-32v-32zm176 152h32v32h-32v-32z" fill="#268c56"/><path d="M351.75 310.05h32v32h-32v-32z" fill="#116035"/><path d="M215.55 499.62l-12.28 10.91 12.28-10.91z" fill="#33b575"/><path d="M417.35 200.21l-36.96 27.68-15.52 11.6 16.64 27.68c2.65 4.51 2.95 10.03.8 14.8l-40 88c-1.59 3.53-4.4 6.38-7.92 8l-69.92 31.76 12.08 16.08c4.97 6.65 4.03 15.99-2.16 21.52l-49.76 44.24-9.07 8.08 48.19 34.4 72-64-24-32 88-40 40-88-24-40 64-48-8-48-52.53-15.01 4.29 25.73c1.02 5.9-1.36 11.86-6.16 15.44z" fill="#308e87"/><path d="M303.75 86.05l-40-16-24 32h-64l-8.7-48-119.3 48 8 72h-32l-24 48 64 40 14.07 3.25-5.99-53.49c-.77-7.14 3.27-13.93 9.92-16.64l88.96-35.76 30.4-12.24c2.7-1.04 5.63-1.35 8.48-.88 1.83.23 3.6.83 5.2 1.76 4.21 2.31 7.15 6.4 8 11.12l6.32 34.88h42.64l16-21.36 3.2-4.24c4.35-5.76 12-7.92 18.72-5.28l40 16a16.078 16.078 0 0110.08 14.88v27.92l20.62 5.91 36.98-27.67c4.8-3.58 7.18-9.54 6.16-15.44l-4.29-25.73-115.47-32.99v-40z" fill="#6ecec4"/><path d="M417.35 200.21l-36.98 27.67.02.01 36.96-27.68z" fill="#48d88d"/><path class="st6" d="M276.55 425.81l-12.08-16.08 69.92-31.76c3.52-1.62 6.33-4.47 7.92-8l40-88a16.135 16.135 0 00-.8-14.8l-16.64-27.68 15.5-11.61-20.62-5.91v-27.92c-.02-6.55-4-12.44-10.08-14.88l-40-16a16.085 16.085 0 00-18.72 5.28l-3.2 4.24-16 21.36h-42.64l-6.32-34.88c-.85-4.72-3.79-8.81-8-11.12-1.6-.93-3.37-1.53-5.2-1.76-2.85-.47-5.78-.16-8.48.88l-30.4 12.24-88.96 35.76c-6.65 2.71-10.69 9.5-9.92 16.64l5.99 53.49 89.93 20.75 8 40 32 16-8 48 40 56-32 48 7.8 5.6 58.84-52.32c6.2-5.53 7.13-14.87 2.16-21.52z"/><path class="st6" d="M274.39 447.33l-58.84 52.29.01.01 9.07-8.06 49.76-44.24zm106-219.44l-.02-.01-15.5 11.61 15.52-11.6z"/><path d="M342.71 56.05c0 .34-.06.66-.06 1h21.1v-49h-42.72a63.754 63.754 0 0121.68 48z" fill="#f4976c"/><path d="M283.75 57.05h58.9c0-.34.06-.66.06-1a63.773 63.773 0 00-21.68-48h-37.28v49z" fill="#f26d6d"/><path d="M143.75 198.05c-4.42 0-8-3.58-8-8v-32c0-4.42 3.58-8 8-8s8 3.58 8 8v32c0 4.42-3.58 8-8 8z" fill="#5de5e0"/><path d="M319.75 350.05c-4.42 0-8-3.58-8-8v-32c0-4.42 3.58-8 8-8s8 3.58 8 8v32c0 4.42-3.58 8-8 8z" fill="#b39ddb"/><path class="st11" d="M367.75 350.05c-4.42 0-8-3.58-8-8v-32c0-4.42 3.58-8 8-8s8 3.58 8 8v32c0 4.42-3.58 8-8 8z"/><path d="M283.75 222.05c-4.42 0-8-5.1-8-11.38V11.44c0-6.29 3.58-11.38 8-11.38s8 5.1 8 11.38v199.23c0 6.28-3.58 11.38-8 11.38z" fill="#cfbc81"/><path d="M239.75 222.05h-8c-4.42 0-8-3.58-8-8s3.58-8 8-8h8c4.42 0 8 3.58 8 8s-3.58 8-8 8z" fill="#1f665f"/><path class="st11" d="M268.75 240.05h-8c-4.42 0-8-3.58-8-8s3.58-8 8-8h8c4.42 0 8 3.58 8 8s-3.58 8-8 8z"/></svg>