<svg version="1.1" id="Слой_1" xmlns="http://www.w3.org/2000/svg" x="0" y="0" viewBox="0 0 512 368" xml:space="preserve"><style>.st3{fill:#cfbc81}.st4{fill:#54c6bd}.st5{fill:#3aafa9}.st6{fill:#d7cbef}.st7{fill:#b39ddb}</style><circle cx="256.37" cy="160.27" r="160" fill="#f4976c"/><path d="M312.21 10.29c47.71 25.64 80.16 76.02 80.16 133.98 0 83.95-68.05 152-152 152-57.96 0-108.34-32.44-133.98-80.16 22.66 60.83 81.25 104.16 149.98 104.16 88.37 0 160-71.63 160-160 0-68.73-43.33-127.32-104.16-149.98z" fill="#f26d6d"/><path d="M365.62 304.27c-8.49 0-16.63-3.37-22.63-9.37l-13.26-13.26c-6-6-14.14-9.37-22.63-9.37H205.62c-8.49 0-16.63 3.37-22.63 9.37l-13.26 13.26c-6 6-14.14 9.37-22.63 9.37H.37v64h512v-64H365.62z" fill="#efcb73"/><path class="st3" d="M365.62 304.27c-8.49 0-16.63-3.37-22.63-9.37l-13.26-13.26c-6-6-14.14-9.37-22.63-9.37H205.62c-8.49 0-16.63 3.37-22.63 9.37l-13.26 13.26c-6 6-14.14 9.37-22.63 9.37H.37v16h149.74c8.49 0 16.63-3.37 22.63-9.37L186 297.64c6-6 14.14-9.37 22.63-9.37h95.49c8.49 0 16.63 3.37 22.63 9.37L340 310.89c6 6 14.14 9.37 22.63 9.37h149.74v-16H365.62z"/><path class="st4" d="M224.37 144.27h-32v-32c0-8.84-7.16-16-16-16s-16 7.16-16 16v48c0 8.84 7.16 16 16 16h48"/><path class="st5" d="M208.37 144.27h16v32h-16v-32z"/><path class="st4" d="M288.37 208.27h32v-32c0-8.84 7.16-16 16-16s16 7.16 16 16v48c0 8.84-7.16 16-16 16h-48"/><path class="st5" d="M288.37 208.27h16v32h-16v-32z"/><path class="st4" d="M288.37 272.27v-192c0-8.84-7.16-16-16-16h-32c-8.84 0-16 7.16-16 16v192"/><path class="st5" d="M288.37 80.27v192h-16v-208c8.84 0 16 7.16 16 16z"/><path class="st3" d="M368.37 328.77h16v15h-16v-15zm-208 0h16v15h-16v-15z"/><path class="st6" d="M464.37 40.27c-17.67 0-32 14.33-32 32 0-8.84-7.16-16-16-16s-16 7.16-16 16c0-17.67-14.33-32-32-32s-32 14.33-32 32 14.33 32 32 32h96c17.67 0 32-14.33 32-32s-14.33-32-32-32z"/><path class="st7" d="M464.37 40.27c-4.24 0-8.29.83-12 2.33 11.73 4.75 20 16.24 20 29.66 0 17.67-14.33 32-32 32h24c17.67 0 32-14.33 32-32s-14.33-31.99-32-31.99z"/><path class="st6" d="M144.37 200.27c-17.67 0-32 14.33-32 32 0-8.84-7.16-16-16-16s-16 7.16-16 16c0-17.67-14.33-32-32-32s-32 14.33-32 32 14.33 32 32 32h96c17.67 0 32-14.33 32-32s-14.33-32-32-32z"/><path class="st7" d="M144.37 200.27c-4.24 0-8.29.83-12 2.33 11.73 4.75 20 16.24 20 29.67 0 17.67-14.33 32-32 32h24c17.67 0 32-14.33 32-32s-14.33-32-32-32z"/></svg>