<svg version="1.1" id="Слой_1" xmlns="http://www.w3.org/2000/svg" x="0" y="0" viewBox="0 0 496 541" xml:space="preserve"><style>.st0{fill:#f4976c}.st2{fill:#cfbc81}.st3{fill:#3aafa9}</style><path class="st0" d="M434.01 184.07c.02-8.26 4.35-15.8 11.31-19.68l19.16-10.67-19.7-9.44c-6.77-3.24-14.55-4.89-21.77-4.91-28.66-.05-52.03 24.95-52.09 55.74s23.22 55.88 51.88 55.94c18.61.04 32.9-10.88 42.17-28.47l10.6-20.1-21.25 3.57c-12.14 1.93-20.34-8.47-20.31-21.98z"/><path d="M101.93 23.4c0 4.19-2.97 7.59-6.62 7.59H68.85C57.9 30.99 49 41.2 49 53.75s8.9 22.77 19.85 22.77h13.23c3.65 0 6.62 3.4 6.62 7.59v15.18h13.23V84.1c0-12.55-8.9-22.77-19.85-22.77H68.85c-3.65 0-6.62-3.4-6.62-7.59s2.97-7.59 6.62-7.59h26.47c10.95 0 19.85-10.21 19.85-22.77S106.27.61 95.32.61h-60v15.18h60c3.65.02 6.61 3.42 6.61 7.61z" fill="#b39ddb"/><path class="st2" d="M257.24 187.68c-2.78 0-5.37-1.44-6.82-3.81l-72.88-118.4c-2.5-3.64-1.58-8.62 2.06-11.12s8.62-1.58 11.12 2.06c.15.22.29.44.41.67l72.88 118.4c2.32 3.76 1.14 8.69-2.62 11.01a8.047 8.047 0 01-4.19 1.19h.04z"/><path class="st2" d="M257.22 187.68c-4.42-.01-8-3.59-7.99-8.01 0-1.45.4-2.87 1.14-4.11l71.12-118.4a7.995 7.995 0 0110.98-2.74 7.995 7.995 0 012.74 10.98l-71.12 118.4a7.983 7.983 0 01-6.87 3.88zm-160.56 9.6a7.987 7.987 0 01-6.94-4l-32-56a8.002 8.002 0 013.23-10.84 7.993 7.993 0 0110.65 2.91l25.06 43.84 25.06-43.84c2.28-3.78 7.2-5 10.98-2.72 3.66 2.21 4.94 6.9 2.91 10.65l-32 56a8.015 8.015 0 01-6.95 4z"/><path class="st3" d="M96.35 173.28l-53.34 80H150.3l-53.95-80z"/><path d="M177.31 293.28l-100.32 248H.35v-224l42.64-64h107.28l27.04 40z" fill="#efcb73"/><path class="st0" d="M177.31 293.28l-5.68 14.96-94.64 233.04H.35v-72.64l123.44-199.36 9.92-16h16.56l8.96 13.2 18.08 26.8z" opacity=".44"/><path class="st3" d="M339.31 293.28h-162l79.92-129.6 28.4 44.8 53.68 84.8zm157.04 248h-472l97.6-158.24 31.36 14.24 35.28-16 .88.4 34.32 15.6 35.2-16 35.28 16 35.28-16 35.28 16 31.28-14.24 100.24 158.24z"/><path d="M396.11 383.04l-31.28 14.24-35.28-16-35.28 16-35.28-16-35.2 16-34.32-15.6-.88-.4-35.28 16-31.36-14.24 55.36-89.76h162l56.8 89.76z" fill="#f26d6d"/><path d="M176.35 541.28l80-104 80 104h-160z" fill="#308e87"/><path d="M288.35 213.28s-15.2 21.76-49.04 80c-13.6 23.28-30.08 52.48-49.84 88.4-23.6 42.96-51.76 95.6-84.88 159.6H24.35l97.6-158.24 55.36-89.76 79.92-129.6 28.4 44.8 2.72 4.8z" fill="#fff" opacity=".15"/><path d="M208.35 365.28c-4.42 0-8-3.58-8-8v-24c0-4.42 3.58-8 8-8s8 3.58 8 8v24c0 4.42-3.58 8-8 8zm-64 128c-4.42 0-8-3.58-8-8v-24c0-4.42 3.58-8 8-8s8 3.58 8 8v24c0 4.42-3.58 8-8 8zm224 0c-4.42 0-8-3.58-8-8v-24c0-4.42 3.58-8 8-8s8 3.58 8 8v24c0 4.42-3.58 8-8 8zm-112-128c-4.42 0-8-3.58-8-8v-24c0-4.42 3.58-8 8-8s8 3.58 8 8v24c0 4.42-3.58 8-8 8zm-216.67 4.67c-4.05 0-7.33-3.28-7.33-7.33v-22c0-4.05 3.28-7.33 7.33-7.33s7.33 3.28 7.33 7.33v22c0 4.05-3.28 7.33-7.33 7.33zm0 51.33c-4.05 0-7.33-3.28-7.33-7.33v-22c0-4.05 3.28-7.33 7.33-7.33s7.33 3.28 7.33 7.33v22c0 4.05-3.28 7.33-7.33 7.33zm48.67-56c-4.42 0-8-3.58-8-8v-24c0-4.42 3.58-8 8-8s8 3.58 8 8v24c0 4.42-3.58 8-8 8zm216 0c-4.42 0-8-3.58-8-8v-24c0-4.42 3.58-8 8-8s8 3.58 8 8v24c0 4.42-3.58 8-8 8z" fill="#1f665f"/></svg>